<svg width="141" height="131" viewBox="0 0 141 131" fill="none" xmlns="http://www.w3.org/2000/svg">
<path d="M140.279 130.16L102.232 119.321L103.979 113.187L133.903 121.705V18.7339L94.4399 7.51152L45.7248 19.6265L6.37641 8.42964V111.35L45.8331 122.63L84.8561 112.83L86.4119 119.014L45.7309 129.217L0 116.158V0L45.8394 13.0269L94.5546 0.911952L140.279 13.9133V130.16ZM93.7324 61.8506H94.5102C94.7423 61.8433 95.0151 61.8392 95.289 61.8392C109.779 61.8392 121.58 73.3462 122.055 87.7204L122.056 87.7638V87.8658C122.056 94.9245 117.726 103.953 109.182 114.691C105.167 119.703 101.082 124.187 96.7345 128.403L96.6971 128.438L94.5162 130.498L92.3293 128.445C87.9245 124.214 83.8338 119.754 80.0374 115.046L79.8251 114.774C71.2809 104.062 66.9515 95.0072 66.9515 87.8721V87.7701C67.4296 73.3545 79.2303 61.8502 93.7182 61.8502H93.7328H93.7319L93.7324 61.8506ZM94.5102 68.227H94.3699C94.1762 68.2204 93.9487 68.2166 93.7202 68.2166C82.6988 68.2166 73.7183 76.955 73.3292 87.8815L73.3283 87.9171C73.3729 98.3106 87.0439 114.188 94.4913 121.667C101.932 114.13 115.622 98.1638 115.667 87.9171C115.277 76.955 106.296 68.2166 95.2747 68.2166C95.046 68.2166 94.8186 68.2203 94.5918 68.2278L94.6247 68.227H94.5102ZM100.555 89.3963C100.555 92.7419 97.8429 95.4541 94.4975 95.4541C91.152 95.4541 88.44 92.7419 88.44 89.3963C88.44 86.051 91.152 83.3389 94.4975 83.3389C97.8429 83.3389 100.555 86.0511 100.555 89.3967V89.3963ZM48.9704 125.933H42.5941V16.3236H48.9704V125.933ZM97.6855 65.0388H91.3092V4.14495H97.6855V65.0388Z" fill="black"/>
</svg>
