<svg width="156" height="150" viewBox="0 0 156 150" fill="none" xmlns="http://www.w3.org/2000/svg">
<path d="M30.4482 89.1033C47.2644 89.1033 60.8966 102.736 60.8966 119.552C60.8966 136.368 47.2644 150 30.4484 150C13.6321 150 0 136.368 0 119.552C0.0200722 102.744 13.6403 89.1236 30.4464 89.1037H30.4483L30.4482 89.1033ZM30.4482 142.952C43.372 142.952 53.8483 132.475 53.8483 119.552C53.8483 106.628 43.3717 96.1517 30.4482 96.1517C17.5246 96.1517 7.04841 106.628 7.04841 119.552C7.06452 132.469 17.5313 142.936 30.447 142.952H30.4484H30.4482ZM124.613 150H30.4482V142.952H124.613C137.517 142.952 147.977 132.491 147.977 119.587C147.977 106.683 137.517 96.222 124.613 96.222H30.4482V89.1736H124.613C141.409 89.1736 155.026 102.79 155.026 119.587C155.026 136.384 141.409 150 124.613 150ZM77.5304 96.1517C57.026 96.1276 40.4104 79.512 40.3864 59.0098V59.0076C40.3864 40.0973 50.254 28.7918 59.0148 18.8328C60.1848 17.5007 61.2843 16.2391 62.3699 14.9561L65.3793 11.3969L69.5379 17.5782L75.6205 0L79.3419 2.23431C86.0419 6.56301 91.8291 11.4968 96.8962 17.095L96.9625 17.1695C107.549 28.0033 114.225 42.6977 114.687 58.9477L114.689 59.0359C114.649 79.5332 98.0313 96.1357 77.5322 96.1518H77.5307L77.5304 96.1517ZM64.7027 22.9911L64.315 23.4351C56.0192 32.9364 47.4345 42.7263 47.4345 59.0076C47.4345 75.6291 60.9089 89.1035 77.5304 89.1035C94.1519 89.1035 107.626 75.6291 107.626 59.0076C107.23 44.5571 101.287 31.5674 91.8612 22.0272L91.8665 22.0328C88.0982 17.9045 84.0027 14.2023 79.5782 10.9184L79.3491 10.7557L71.5961 33.2322L64.7027 22.9911ZM77.5304 94.8829C68.1541 94.8708 60.5562 87.273 60.5442 77.8977V77.8967C60.5442 62.9123 74.7251 51.3814 75.3455 50.9021L77.5305 49.133L79.7366 50.8951C80.3428 51.3815 94.538 62.8769 94.538 77.89C94.5299 87.2767 86.9186 94.883 77.5305 94.883L77.5304 94.8829ZM77.5304 58.4224C72.0768 63.3174 68.4178 70.1156 67.6039 77.7641L67.5925 77.8967C67.5925 83.3855 72.0421 87.8349 77.5304 87.8349C83.0188 87.8349 87.4686 83.3853 87.4686 77.897C86.6574 70.1124 82.995 63.3096 77.5597 58.4481L77.5307 58.4226L77.5304 58.4224Z" fill="black"/>
</svg>
