<svg width="146" height="151" viewBox="0 0 146 151" fill="none" xmlns="http://www.w3.org/2000/svg">
<path d="M29.0017 0.276733H29.8337C30.0614 0.270288 30.3295 0.266479 30.5983 0.266479C46.0901 0.266479 58.7086 12.5689 59.2167 27.9372L59.2179 27.9838V28.0929C59.2179 35.6403 54.6025 45.2738 45.5143 56.7753C41.23 62.1362 36.8735 66.9315 32.2358 71.4388L32.1992 71.4743L29.8674 73.6831L27.5223 71.4879C22.8129 66.9625 18.439 62.1911 14.3799 57.1554L14.1526 56.8639C5.01008 45.4031 0.380613 35.7289 0.380613 28.0928V27.9838C0.895617 12.5735 13.512 0.276733 29.0002 0.276733H29.0017ZM29.8337 7.09453H29.7244C29.5173 7.0875 29.274 7.0834 29.0297 7.0834C17.2454 7.0834 7.64325 16.4267 7.22726 28.1095L7.22624 28.1476C7.27399 39.2606 21.8912 56.2365 29.8474 64.2337C37.7628 56.1822 52.3321 39.1033 52.4002 28.1474C52.0358 16.4364 42.4546 7.0812 30.6889 7.0812C30.4238 7.0812 30.1602 7.08588 29.8977 7.09541L29.9358 7.09423L29.8337 7.09453ZM36.3103 29.7292C36.3103 33.3061 33.4106 36.206 29.8335 36.206C26.2565 36.206 23.3564 33.3063 23.3564 29.7292C23.3564 26.1523 26.2563 23.2524 29.8335 23.2524C33.4107 23.2524 36.3103 26.1522 36.3103 29.7292ZM114.373 150.266H20.0159C9.1531 150.266 0.346924 141.46 0.346924 130.597C0.346924 119.734 9.15296 110.928 20.0161 110.928H52.5263C59.5488 110.928 65.2415 105.236 65.2415 98.2131C65.2415 91.2112 59.5817 85.5311 52.5876 85.4983H23.2885V78.6806H52.6456C63.2984 78.7707 71.9207 87.3358 72.1032 97.9574L72.1035 97.9745V98.0426C72.0654 108.88 63.3132 117.661 52.4902 117.746H20.0161C12.9185 117.746 7.16472 123.5 7.16472 130.597C7.16472 137.695 12.9185 143.449 20.0161 143.449H114.373L114.373 150.266ZM111.305 133.836H104.488V55.7731H111.305V133.836ZM145.932 98.1792H104.488V65.3178H145.905L137.724 81.8098L145.932 98.1792ZM111.305 91.3612H134.901L130.129 81.8164L134.901 72.1283H111.305L111.305 91.3612Z" fill="black"/>
</svg>
