<svg width="141" height="141" viewBox="0 0 141 141" fill="none" xmlns="http://www.w3.org/2000/svg">
<path d="M101.081 0C107.24 0.00821227 113.066 1.42647 118.256 3.94969L118.022 3.84704L122.046 5.7735L96.1472 31.6723L99.3057 40.9703L108.604 44.1287L134.503 18.23L136.429 22.254C138.859 27.2101 140.279 33.04 140.279 39.2018C140.279 60.8663 122.717 78.4288 101.052 78.4288C97.659 78.4288 94.3662 77.9979 91.2261 77.1879L91.4985 77.2473L28.6025 140.149L0 111.547L63.0287 48.7777C62.2787 45.9107 61.8482 42.6191 61.8482 39.2268C61.8482 17.5625 79.4108 0 101.075 0H101.081H101.081ZM111.036 7.85188C108.062 6.87531 104.64 6.31208 101.087 6.31208C82.9076 6.31208 68.1703 21.0494 68.1703 39.2288C68.1703 42.6423 68.6899 45.9341 69.654 49.0301L69.5916 48.7969L70.1411 50.6162L8.94453 111.56L28.6022 131.218L89.6728 70.1474L91.4855 70.6971C94.3488 71.5995 97.6419 72.1194 101.056 72.1194C119.232 72.1194 133.967 57.385 133.967 39.2092C133.967 35.653 133.403 32.2285 132.359 29.0202L132.425 29.2529L110.316 51.3617L94.347 45.9356L88.9209 29.9668L111.036 7.85188Z" fill="black"/>
</svg>
